<svg baseProfile="full" height="44" version="1.1" width="41" xmlns="http://www.w3.org/2000/svg" xmlns:ev="http://www.w3.org/2001/xml-events" xmlns:xlink="http://www.w3.org/1999/xlink"><defs /><path d="M 17,7 L 16,8 L 15,8 L 13,10 L 12,10 L 11,11 L 10,11 L 7,14 L 7,26 L 8,27 L 8,28 L 9,29 L 10,29 L 12,31 L 13,31 L 14,32 L 15,32 L 17,34 L 22,34 L 24,32 L 25,32 L 26,31 L 27,31 L 29,29 L 30,29 L 31,28 L 31,27 L 32,26 L 32,15 L 31,14 L 31,13 L 29,11 L 28,11 L 27,10 L 26,10 L 24,8 L 23,8 L 22,7 Z" fill="rgb(36,36,36)" stroke="none" /><path d="M 17,8 L 18,7 L 21,7 L 22,8 L 23,8 L 24,9 L 25,9 L 27,11 L 28,11 L 32,15 L 32,26 L 29,29 L 28,29 L 26,31 L 25,31 L 23,33 L 22,33 L 21,34 L 18,34 L 17,33 L 16,33 L 14,31 L 13,31 L 11,29 L 10,29 L 7,26 L 7,15 L 11,11 L 12,11 L 14,9 L 15,9 L 16,8 Z" fill="rgb(184,184,184)" stroke="none" /><path d="M 17,10 L 15,12 L 14,12 L 13,13 L 12,13 L 10,15 L 10,16 L 9,17 L 9,24 L 10,25 L 10,26 L 11,27 L 12,27 L 14,29 L 15,29 L 17,31 L 22,31 L 24,29 L 25,29 L 27,27 L 28,27 L 29,26 L 29,15 L 27,13 L 26,13 L 25,12 L 24,12 L 22,10 Z" fill="rgb(184,184,184)" stroke="none" /><path d="M 17,11 L 18,10 L 21,10 L 22,11 L 23,11 L 25,13 L 26,13 L 27,14 L 28,14 L 29,15 L 29,25 L 26,28 L 25,28 L 24,29 L 23,29 L 21,31 L 18,31 L 16,29 L 15,29 L 14,28 L 13,28 L 9,24 L 9,17 L 10,16 L 10,15 L 11,14 L 12,14 L 13,13 L 14,13 L 16,11 Z" fill="rgb(36,36,36)" stroke="none" /><path d="M 19,14 L 18,15 L 17,15 L 16,16 L 16,25 L 17,26 L 18,26 L 19,27 L 22,27 L 23,26 L 23,20 L 22,19 L 21,19 L 20,20 L 20,22 L 21,23 L 20,24 L 19,24 L 18,23 L 18,18 L 19,17 L 22,17 L 23,16 L 23,15 L 22,14 Z" fill="rgb(73,73,73)" stroke="none" /><path d="M 19,14 L 21,14 L 22,15 L 22,16 L 21,17 L 19,17 L 18,18 L 18,23 L 19,24 L 21,24 L 21,22 L 20,21 L 20,20 L 21,19 L 22,19 L 23,20 L 23,26 L 22,27 L 19,27 L 16,24 L 16,17 Z" fill="rgb(73,73,73)" stroke="none" /></svg>